PathFileType	4	(X/Y/Z)	OpenSim_Sub03_EMGBaseline_Magnet.trc
DataRate	CameraRate	NumFrames	NumMarkers	Units	OrigDataRate	OrigDataStartFrame	OrigNumFrames
100	100	33	8	m	100	1	7372
Frame#	Time	torso_imu_offset_imu	pelvis_imu_offset_imu	tibia_r_imu_offset_imu	femur_r_imu_offset_imu	tibia_l_imu_offset_imu	femur_l_imu_offset_imu	toes_r_imu_offset_imu	toes_l_imu_offset_imu
				X1	Y1	Z1	X2	Y2	Z2	X3	Y3	Z3	X4	Y4	Z4	X5	Y5	Z5	X6	Y6	Z6	X7	Y7	Z7	X8		Y8	Z8	

1	0	-0.90966279	-0.24151137	0.13927551	-0.74555055	0.25625189	-0.54241789	-0.57518718	-0.58978979	-0.13603693	-0.77582963	-0.37592471	-0.01271414	-0.65387154	0.46951771	0.19735594	-0.69807230	0.33317813	0.34099152	-0.68019626	-0.25099612	-0.42969207	-0.73921241	-0.12812027	-0.34624864
2	0.01000000	-0.90748191	-0.24216708	0.13790093	-0.74585343	0.24990850	-0.53515057	-0.57889095	-0.59106392	-0.13414329	-0.77379524	-0.37778732	-0.00783111	-0.65928359	0.47094446	0.19548515	-0.69430358	0.33481830	0.33817802	-0.67913084	-0.25318398	-0.42802886	-0.73732537	-0.13156031	-0.34266243
3	0.02000000	-0.91036780	-0.24139963	0.13964417	-0.74820145	0.24864305	-0.53420907	-0.57703034	-0.59045269	-0.13336308	-0.77407881	-0.37966004	-0.01146793	-0.65743621	0.46478968	0.18884789	-0.69788499	0.33385019	0.33668734	-0.68175268	-0.25255283	-0.43169170	-0.74060126	-0.13299668	-0.35333173
4	0.03000000	-0.91045197	-0.24251309	0.13861164	-0.74514687	0.25472195	-0.54354847	-0.57687864	-0.59231099	-0.13542677	-0.77707623	-0.37783136	-0.00858855	-0.65449491	0.46632539	0.19000795	-0.69773895	0.33253211	0.33784717	-0.68381594	-0.25274668	-0.43121993	-0.74080919	-0.13124580	-0.34913280
5	0.04000000	-0.90485161	-0.23998673	0.13773081	-0.74570238	0.25127199	-0.53750758	-0.57775238	-0.59581669	-0.13527190	-0.77362843	-0.37694406	-0.01045531	-0.65578479	0.46635467	0.18996208	-0.69666928	0.33583737	0.34056669	-0.67919652	-0.25420573	-0.43019998	-0.73879508	-0.13210266	-0.34529351
6	0.05000000	-0.90768937	-0.24263378	0.14496929	-0.74777074	0.24976334	-0.54156238	-0.57470824	-0.59308596	-0.13165051	-0.77719851	-0.37711333	-0.01072083	-0.65723381	0.46886735	0.18897373	-0.69504754	0.33143936	0.34101016	-0.67564797	-0.25646819	-0.42942602	-0.73942598	-0.13397886	-0.34630987
7	0.06000000	-0.90575245	-0.24488904	0.14303485	-0.74287161	0.25624362	-0.54621826	-0.57461376	-0.59121280	-0.12595311	-0.77798373	-0.37560484	-0.00958359	-0.65312397	0.46718871	0.18677098	-0.69653101	0.32864227	0.33862662	-0.67769559	-0.25515006	-0.43190725	-0.73811979	-0.12825633	-0.35295244
8	0.07000000	-0.90739327	-0.24183121	0.13541687	-0.74759306	0.25500544	-0.53630784	-0.57671530	-0.59348877	-0.13388904	-0.77897302	-0.37756335	-0.01357915	-0.65414173	0.47084580	0.18968251	-0.70058980	0.32969328	0.34136941	-0.67448906	-0.25600018	-0.42911682	-0.73812404	-0.13023855	-0.34781121
9	0.08000000	-0.91048520	-0.24078101	0.13588830	-0.75045222	0.25231426	-0.53319033	-0.57494186	-0.59232470	-0.13270769	-0.77943925	-0.37824026	-0.01650837	-0.65377018	0.46970956	0.18982418	-0.69819623	0.33294397	0.34296048	-0.67848289	-0.25137497	-0.42821226	-0.73755008	-0.13029541	-0.34578984
10	0.09000000	-0.90795462	-0.24066154	0.14233640	-0.74795614	0.25475966	-0.53663691	-0.57508311	-0.58958615	-0.13362541	-0.77802247	-0.37465065	-0.01577850	-0.65456077	0.46738177	0.18985548	-0.69862312	0.33103513	0.33698269	-0.68236861	-0.25519686	-0.43153334	-0.73581433	-0.12568120	-0.35008478
11	0.10000000	-0.91169768	-0.24171120	0.14189859	-0.74518385	0.24924523	-0.53774407	-0.57437571	-0.59000709	-0.13519787	-0.77660106	-0.38223062	-0.01128082	-0.65651581	0.46956541	0.19305122	-0.69915659	0.32673484	0.34115944	-0.68131272	-0.25485389	-0.43181064	-0.74069218	-0.12847327	-0.35187192
12	0.11000000	-0.90820274	-0.24322701	0.14013134	-0.75043930	0.25113821	-0.53751566	-0.57302113	-0.59472768	-0.13003722	-0.77804023	-0.37583554	-0.01079104	-0.65540392	0.46931003	0.18394811	-0.70132853	0.33062330	0.34441679	-0.67865885	-0.25460090	-0.43374539	-0.74222945	-0.12829426	-0.34950081
13	0.12000000	-0.90525241	-0.24233832	0.14188850	-0.75399514	0.25114240	-0.53838834	-0.57561944	-0.59301196	-0.12975655	-0.78300892	-0.37218526	-0.01386446	-0.65294572	0.46848188	0.18631968	-0.69887724	0.33037534	0.33906345	-0.68233896	-0.25453021	-0.43269237	-0.73913719	-0.13322900	-0.34528126
14	0.13000000	-0.90435241	-0.23920797	0.14151519	-0.74978848	0.25251808	-0.53488568	-0.57431343	-0.59230096	-0.13427616	-0.77650650	-0.37440063	-0.01062272	-0.65044455	0.46658372	0.19185530	-0.69619107	0.32972864	0.34254527	-0.68076363	-0.25149189	-0.42985083	-0.73847828	-0.13119473	-0.34585023
15	0.14000000	-0.91163035	-0.24106452	0.14257565	-0.74761139	0.26061077	-0.53102747	-0.57639836	-0.59392850	-0.13381213	-0.77675181	-0.37677682	-0.01412297	-0.65009140	0.46804439	0.19020916	-0.70092983	0.33140339	0.33931742	-0.67570751	-0.25590228	-0.43043200	-0.74115290	-0.12763104	-0.34905582
16	0.15000000	-0.90893279	-0.24563275	0.14241231	-0.74742767	0.25989727	-0.53422735	-0.57586196	-0.59032106	-0.12929736	-0.78155871	-0.36891061	-0.01380947	-0.65780195	0.46909146	0.19143347	-0.70146584	0.33197725	0.33856829	-0.67779048	-0.25677436	-0.42863047	-0.73996056	-0.13272116	-0.34596250
17	0.16000000	-0.90865876	-0.23972250	0.14047650	-0.74988651	0.25639496	-0.53716355	-0.57725807	-0.59060389	-0.12804709	-0.77868398	-0.36953002	-0.01057807	-0.65734777	0.47082449	0.18946791	-0.69846814	0.32805973	0.34138212	-0.67774901	-0.25226010	-0.42635201	-0.74040562	-0.12986192	-0.34786827
18	0.17000000	-0.90641351	-0.23753735	0.14360551	-0.75543475	0.25059229	-0.53500752	-0.57685620	-0.59244906	-0.13067880	-0.77932837	-0.37024692	-0.01417894	-0.64700535	0.47425461	0.19475761	-0.70227684	0.32717694	0.33866260	-0.67828648	-0.25219459	-0.43341427	-0.73531822	-0.13051610	-0.34977117
19	0.18000000	-0.90536863	-0.24152462	0.14205533	-0.75070873	0.25561994	-0.53054267	-0.57291379	-0.59498823	-0.13509548	-0.78062530	-0.36921670	-0.01104178	-0.64900379	0.47286515	0.19767759	-0.70136358	0.32915868	0.34071292	-0.68052513	-0.25476206	-0.43617801	-0.73630857	-0.12955199	-0.35138183
20	0.19000000	-0.90784490	-0.23968054	0.14312917	-0.75091135	0.25648237	-0.52918057	-0.57050075	-0.59140267	-0.13189958	-0.78383970	-0.37002326	-0.01344002	-0.65202222	0.47047605	0.19771670	-0.69724156	0.31998826	0.33994374	-0.67855786	-0.25591407	-0.43240442	-0.74047254	-0.12696597	-0.34616554
21	0.20000000	-0.90671431	-0.23923213	0.14240561	-0.75473770	0.25157098	-0.52655383	-0.57162659	-0.59258731	-0.13388050	-0.77913264	-0.36455230	-0.01135675	-0.65163986	0.47474304	0.19462449	-0.70042112	0.32251869	0.33727994	-0.67798399	-0.25638609	-0.43069488	-0.74262939	-0.12658383	-0.34683919
22	0.21000000	-0.90820377	-0.24141683	0.14792897	-0.75417467	0.25250835	-0.53468870	-0.57807675	-0.59411121	-0.12987912	-0.77797215	-0.36601248	-0.00855774	-0.65169143	0.47556620	0.19100502	-0.70220842	0.32321850	0.34059687	-0.68216278	-0.25869531	-0.43090603	-0.73809852	-0.12862640	-0.34663640
23	0.22000000	-0.90940738	-0.23875104	0.14782892	-0.75618344	0.25685927	-0.53589200	-0.57550080	-0.59530376	-0.13135676	-0.77951420	-0.36414671	-0.01759084	-0.65206466	0.47333208	0.19636893	-0.70093789	0.32082462	0.34222003	-0.68042449	-0.25550179	-0.42815805	-0.73225892	-0.12671666	-0.34835581
24	0.23000000	-0.90871023	-0.23758932	0.14891643	-0.75367986	0.25610262	-0.52964866	-0.57138834	-0.59851286	-0.13247068	-0.77948466	-0.36555374	-0.01657061	-0.65009449	0.47768414	0.18684068	-0.70281081	0.32177298	0.34062127	-0.67294341	-0.25151149	-0.43011723	-0.73656034	-0.12682726	-0.35117440
25	0.24000000	-0.90660426	-0.24195425	0.14597885	-0.75810508	0.25152099	-0.52587444	-0.56992482	-0.59333675	-0.12933193	-0.78524270	-0.36541311	-0.01127746	-0.64679850	0.47131562	0.18981132	-0.70330672	0.32120008	0.34000120	-0.68192359	-0.25520207	-0.42693843	-0.73565618	-0.13294541	-0.34821735
26	0.25000000	-0.90732395	-0.24378240	0.14528526	-0.75085299	0.25242831	-0.52597071	-0.56932148	-0.59414407	-0.12708319	-0.78797971	-0.36262586	-0.01223391	-0.64703093	0.47461558	0.19880042	-0.70539107	0.32110149	0.34226337	-0.68050996	-0.25469652	-0.43076918	-0.73691168	-0.13294029	-0.34977416
27	0.26000000	-0.90750222	-0.24556834	0.14319339	-0.75282436	0.25631582	-0.53126402	-0.57502252	-0.59947323	-0.12125983	-0.77996369	-0.36455454	-0.01250975	-0.64926806	0.47571101	0.19008473	-0.70351784	0.31776316	0.34105924	-0.67685631	-0.25535015	-0.42942276	-0.74238403	-0.13107283	-0.34704934
28	0.27000000	-0.90964352	-0.24403109	0.14098577	-0.75908881	0.25330408	-0.52609418	-0.57138461	-0.60039982	-0.12498929	-0.78314786	-0.36121540	-0.01608413	-0.65093534	0.47288032	0.18746407	-0.70421605	0.31748518	0.33867492	-0.67891510	-0.25667462	-0.42757975	-0.74066500	-0.13121633	-0.34415589
29	0.28000000	-0.90910424	-0.24354317	0.14316961	-0.75879628	0.25174598	-0.52377476	-0.57150953	-0.59520767	-0.12492862	-0.78338530	-0.36071917	-0.02104544	-0.64488810	0.47976827	0.19007520	-0.70700300	0.32140799	0.34273744	-0.67945243	-0.25347678	-0.42863280	-0.73793860	-0.12776620	-0.34583480
30	0.29000000	-0.90829782	-0.24539753	0.14293391	-0.75573285	0.25725452	-0.52227906	-0.57174783	-0.59747336	-0.11922674	-0.78445998	-0.35987380	-0.01876640	-0.64423991	0.48039425	0.19219194	-0.70385293	0.32183315	0.34437372	-0.68038461	-0.25814346	-0.42712677	-0.73815263	-0.12696431	-0.35083826
31	0.30000000	-0.90789343	-0.24509416	0.14791725	-0.75307311	0.25430208	-0.51875794	-0.56771767	-0.60125638	-0.12128789	-0.78123625	-0.36210132	-0.01433823	-0.64871361	0.47938929	0.19332960	-0.70149795	0.31578864	0.33865410	-0.67671453	-0.25833384	-0.43061201	-0.73822397	-0.12729082	-0.34997628
32	0.31000000	-0.90710477	-0.24491220	0.14569332	-0.76159791	0.25321527	-0.51880611	-0.56856951	-0.59843142	-0.12260837	-0.78198134	-0.35980572	-0.01745888	-0.64428482	0.47778929	0.19493495	-0.70010663	0.31802548	0.33926767	-0.67406569	-0.25582051	-0.43507436	-0.73359751	-0.13074705	-0.34984462
33	0.32000000	-0.90220153	-0.24535196	0.14283672	-0.75976176	0.25586113	-0.52123228	-0.56966859	-0.60048409	-0.12308947	-0.78563442	-0.35672841	-0.01544550	-0.64176453	0.47809030	0.19382713	-0.70128788	0.32074677	0.33441388	-0.67535740	-0.25857747	-0.43281902	-0.73800352	-0.12946160	-0.35137386
